<?xml version="1.0" standalone="yes"?>
<svg xmlns="http://www.w3.org/2000/svg" width="500" height="500">
<path style="fill:#010101; stroke:none;" d="M0 0L0 500L500 500L500 0L0 0z"/>
<path style="fill:#887401; stroke:none;" d="M372 79L373 80L372 79M366.667 80.3333L367.333 80.6667L366.667 80.3333M375 80L376 81L375 80M361.667 81.3333L362.333 81.6667L361.667 81.3333M356 82L357 83L356 82M374 82L375 83L374 82M350.667 83.3333L351.333 83.6667L350.667 83.3333M383 83L384 84L383 83M345.667 84.3333L346.333 84.6667L345.667 84.3333M373 84L374 85L373 84M340 85L341 86L340 85M382 85L383 86L382 85M384 85L385 86L384 85M337 86L338 87L337 86M372 86L373 87L372 86M381 87L382 88L381 87M323.667 88.3333L324.333 88.6667L323.667 88.3333M336 88L337 89L336 88M371 88L372 89L371 88M317.667 89.3333L318.333 89.6667L317.667 89.3333M380 89L381 90L380 89M312.667 90.3333L313.333 90.6667L312.667 90.3333M335 90L336 91L335 90M370 90L371 91L370 90M385.333 90.6667L385.667 91.3333L385.333 90.6667M306.667 91.3333L307.333 91.6667L306.667 91.3333M379 91L380 92L379 91M301.667 92.3333L302.333 92.6667L301.667 92.3333M334 92L335 93L334 92M369 92L370 93L369 92M295.667 93.3333L296.333 93.6667L295.667 93.3333M378 93L379 94L378 93M290.667 94.3333L291.333 94.6667L290.667 94.3333M333 94L334 95L333 94M368 94L369 95L368 94M323 95L324 96L323 95M377 95L378 96L377 95M386.333 95.6667L386.667 96.3333L386.333 95.6667M332 96L333 97L332 96M367 96L368 97L367 96M272.667 97.3333L273.333 97.6667L272.667 97.3333M322 97L323 98L322 97M376 97L377 98L376 97M267.667 98.3333L268.333 98.6667L267.667 98.3333M277 98L278 99L277 98M331 98L332 99L331 98M366 98L367 99L366 98M261.667 99.3333L262.333 99.6667L261.667 99.3333M321 99L322 100L321 99M375 99L376 100L375 99M256.667 100.333L257.333 100.667L256.667 100.333M276 100L277 101L276 100M330 100L331 101L330 100M365 100L366 101L365 100M250.667 101.333L251.333 101.667L250.667 101.333M285 101L286 102L285 101M320 101L321 102L320 101M374 101L375 102L374 101M387 101L388 102L387 101M245 102L246 103L245 102M275 102L276 103L275 102M329 102L330 103L329 102M364 102L365 103L364 102M240 103L241 104L240 103M284 103L285 104L284 103M319 103L320 104L319 103M373 103L374 104L373 103M274 104L275 105L274 104M328 104L329 105L328 104M363 104L364 105L363 104M228 105L229 106L228 105M283 105L284 106L283 105M318 105L319 106L318 105M372 105L373 106L372 105M222.667 106.333L223.333 106.667L222.667 106.333M273 106L274 107L273 106M327 106L328 107L327 106M362 106L363 107L362 106M388 106L389 107L388 106M217.667 107.333L218.333 107.667L217.667 107.333M228 107L229 108L228 107M282 107L283 108L282 107M317 107L318 108L317 107M371 107L372 108L371 107M211.667 108.333L212.333 108.667L211.667 108.333M272 108L273 109L272 108M326 108L327 109L326 108M361 108L362 109L361 108M206.667 109.333L207.333 109.667L206.667 109.333M227 109L228 110L227 109M281 109L282 110L281 109M316 109L317 110L316 109M370 109L371 110L370 109M200.667 110.333L201.333 110.667L200.667 110.333M271 110L272 111L271 110M325 110L326 111L325 110M360 110L361 111L360 110M195 111L196 112L195 111M226 111L227 112L226 111M280 111L281 112L280 111M315 111L316 112L315 111M369 111L370 112L369 111M389.333 111.667L389.667 112.333L389.333 111.667M270 112L271 113L270 112M324 112L325 113L324 112M359 112L360 113L359 112M190 113L191 114L190 113M225 113L226 114L225 113M279 113L280 114L279 113M314 113L315 114L314 113M368 113L369 114L368 113M177.667 114.333L178.333 114.667L177.667 114.333M269 114L270 115L269 114M323 114L324 115L323 114M358 114L359 115L358 114M172.667 115.333L173.333 115.667L172.667 115.333M189 115L190 116L189 115M224 115L225 116L224 115M278 115L279 116L278 115M313 115L314 116L313 115M367 115L368 116L367 115M166.667 116.333L167.333 116.667L166.667 116.333M268 116L269 117L268 116M322 116L323 117L322 116M357 116L358 117L357 116M390.333 116.667L390.667 117.333L390.333 116.667M161.667 117.333L162.333 117.667L161.667 117.333M188 117L189 118L188 117M223 117L224 118L223 117M277 117L278 118L277 117M312 117L313 118L312 117M366 117L367 118L366 117M156 118L157 119L156 118M267 118L268 119L267 118M321 118L322 119L321 118M356 118L357 119L356 118M150.667 119.333L151.333 119.667L150.667 119.333M187 119L188 120L187 119M276 119L277 120L276 119M311 119L312 120L311 119M365 119L366 120L365 119M145 120L146 121L145 120M266 120L267 121L266 120M320 120L321 121L320 120M355 120L356 121L355 120M186 121L187 122L186 121M275 121L276 122L275 121M310 121L311 122L310 121M364 121L365 122L364 121M265 122L266 123L265 122M319 122L320 123L319 122M354 122L355 123L354 122M389.667 122.333L390.333 122.667L389.667 122.333M127.667 123.333L128.333 123.667L127.667 123.333M131 123L132 124L131 123M185 123L186 124L185 123M274 123L275 124L274 123M309 123L310 124L309 123M363 123L364 124L363 123M384 123L385 124L384 123M121.667 124.333L122.333 124.667L121.667 124.333M264 124L265 125L264 124M318 124L319 125L318 124M353 124L354 125L353 124M378.667 124.333L379.333 124.667L378.667 124.333M116.667 125.333L117.333 125.667L116.667 125.333M130 125L131 126L130 125M184 125L185 126L184 125M273 125L274 126L273 125M308 125L309 126L308 125M362 125L363 126L362 125M373.667 125.333L374.333 125.667L373.667 125.333M110.667 126.333L111.333 126.667L110.667 126.333M263 126L264 127L263 126M317 126L318 127L317 126M352 126L353 127L352 126M368.667 126.333L369.333 126.667L368.667 126.333M104.667 127.333L105.333 127.667L104.667 127.333M129 127L130 128L129 127M183 127L184 128L183 127M272 127L273 128L272 127M307 127L308 128L307 127M361 127L362 128L361 127M363 127L364 128L363 127M262 128L263 129L262 128M316 128L317 129L316 128M351 128L352 129L351 128M128 129L129 130L128 129M182 129L183 130L182 129M271 129L272 130L271 129M306 129L307 130L306 129M102 130L103 131L102 130M137 130L138 131L137 130M261 130L262 131L261 130M315 130L316 131L315 130M345.667 130.333L346.333 130.667L345.667 130.333M127 131L128 132L127 131M181 131L182 132L181 131M270 131L271 132L270 131M305 131L306 132L305 131M339.667 131.333L340.333 131.667L339.667 131.333M136 132L137 133L136 132M260 132L261 133L260 132M314 132L315 133L314 132M333.667 132.333L334.333 132.667L333.667 132.333M126 133L127 134L126 133M180 133L181 134L180 133M269 133L270 134L269 133M327.667 133.333L328.333 133.667L327.667 133.333M135 134L136 135L135 134M170 134L171 135L170 134M259 134L260 135L259 134M313 134L314 135L313 134M322 134L323 135L322 134M103.333 135.667L103.667 136.333L103.333 135.667M125 135L126 136L125 135M179 135L180 136L179 135M268 135L269 136L268 135M316 135L317 136L316 135M134 136L135 137L134 136M169 136L170 137L169 136M258 136L259 137L258 136M124 137L125 138L124 137M178 137L179 138L178 137M267 137L268 138L267 137M133 138L134 139L133 138M168 138L169 139L168 138M257 138L258 139L257 138M301 138L302 139L301 138M123 139L124 140L123 139M177 139L178 140L177 139M266 139L267 140L266 139M295.667 139.333L296.333 139.667L295.667 139.333M132 140L133 141L132 140M167 140L168 141L167 140M256 140L257 141L256 140M289.667 140.333L290.333 140.667L289.667 140.333M104.333 141.667L104.667 142.333L104.333 141.667M122 141L123 142L122 141M176 141L177 142L176 141M265 141L266 142L265 141M283.667 141.333L284.333 141.667L283.667 141.333M131 142L132 143L131 142M166 142L167 143L166 142M255 142L256 143L255 142M277.667 142.333L278.333 142.667L277.667 142.333M121 143L122 144L121 143M175 143L176 144L175 143M264 143L267 145L267 144L264 143M271.667 143.333L272.333 143.667L271.667 143.333M130 144L131 145L130 144M165 144L166 145L165 144M254 144L255 145L254 144M120 145L121 146L120 145M174 145L175 146L174 145M129 146L130 147L129 146M164 146L165 147L164 146M253 146L254 147L253 146M105.333 147.667L105.667 148.333L105.333 147.667M119 147L120 148L119 147M173 147L174 148L173 147M250.667 147.333L251.333 147.667L250.667 147.333M128 148L129 149L128 148M163 148L164 149L163 148M244.667 148.333L245.333 148.667L244.667 148.333M118 149L119 150L118 149M172 149L173 150L172 149M239 149L240 150L239 149M127 150L128 151L127 150M162 150L163 151L162 150M207 150L208 151L207 150M233 150L234 151L233 150M117 151L118 152L117 151M171 151L172 152L171 151M227.667 151.333L228.333 151.667L227.667 151.333M126 152L127 153L126 152M161 152L162 153L161 152M206 152L207 153L206 152M221.667 152.333L222.333 152.667L221.667 152.333M106 153L107 154L106 153M116 153L117 154L116 153M170 153L171 154L170 153M215.667 153.333L216.333 153.667L215.667 153.333M125 154L126 155L125 154M160 154L161 155L160 154M205 154L206 155L205 154M115 155L116 156L115 155M169 155L170 156L169 155M124 156L125 157L124 156M159 156L160 157L159 156M202.667 156.333L203.333 156.667L202.667 156.333M114 157L115 158L114 157M168 157L169 158L168 157M195.667 157.333L196.333 157.667L195.667 157.333M107.333 158.667L107.667 159.333L107.333 158.667M123 158L124 159L123 158M158 158L159 159L158 158M189.667 158.333L190.333 158.667L189.667 158.333M113 159L114 160L113 159M167 159L168 160L167 159M183.667 159.333L184.333 159.667L183.667 159.333M157 160L158 161L157 160M177.667 160.333L178.333 160.667L177.667 160.333M112 161L113 162L112 161M166 161L167 162L166 161M171.667 161.333L172.333 161.667L171.667 161.333M156 162L157 163L156 162M111 163L112 164L111 163M108.333 164.667L108.667 165.333L108.333 164.667M155 164L156 165L155 164M110 165L111 166L110 165M151.667 165.333L152.333 165.667L151.667 165.333M145.667 166.333L146.333 166.667L145.667 166.333M109 167L110 168L109 167M139.667 167.333L140.333 167.667L139.667 167.333M133.667 168.333L134.333 168.667L133.667 168.333M127.667 169.333L128.333 169.667L127.667 169.333M121.667 170.333L122.333 170.667L121.667 170.333z"/>
<path style="fill:#232fe7; stroke:none;" d="M112 184L112 365L150 365L150 420C166.671 410.366 181.601 393.833 196 381.05C201.465 376.199 208.749 367.124 216 365.318C227.054 362.564 241.604 365 253 365L333 365C352.144 365 372.508 366.823 386.535 350.91C400.31 335.285 398 315.309 398 296L398 184L112 184z"/>
<path style="fill:#8c8075; stroke:none;" d="M183.667 259.333L184.333 259.667L183.667 259.333z"/>
<path style="fill:#010101; stroke:none;" d="M185 259.558C165.598 261.796 168.483 291.003 188 289.21C206.984 287.465 203.964 257.37 185 259.558z"/>
<path style="fill:#8c8075; stroke:none;" d="M188.667 259.333L189.333 259.667L188.667 259.333M251.667 259.333L252.333 259.667L251.667 259.333z"/>
<path style="fill:#010101; stroke:none;" d="M253 259.508C233.817 262.355 237.895 292.238 257 289.229C276.127 286.217 272.016 256.686 253 259.508z"/>
<path style="fill:#8c8075; stroke:none;" d="M257.667 259.333L258.333 259.667L257.667 259.333M320.667 259.333L321.333 259.667L320.667 259.333z"/>
<path style="fill:#010101; stroke:none;" d="M322 259.558C302.923 261.758 305.66 290.925 325 289.211C344.412 287.489 341.202 257.343 322 259.558z"/>
<path style="fill:#8c8075; stroke:none;" d="M325.667 259.333L326.333 259.667L325.667 259.333M180 260L181 261L180 260M192 260L193 261L192 260M317 260L318 261L317 260M329 260L330 261L329 260M178 261L179 262L178 261M194 261L195 262L194 261M315 261L316 262L315 261M331 261L332 262L331 261M244 263L245 264L244 263M265 263L266 264L265 263M243 264L244 265L243 264M266 264L267 265L266 264M198 265L199 266L198 265M173 266L174 267L173 266M310 266L311 267L310 266M336 266L337 267L336 266M241 267L242 268L241 267M268 267L269 268L268 267M172 268L173 269L172 268M200 268L201 269L200 268M309 268L310 269L309 268M337 268L338 269L337 268M240 269L241 270L240 269M269 269L270 270L269 269M171 271L172 272L171 271M308 271L308 274L309 274L308 271M338.333 271.667L338.667 272.333L338.333 271.667M201 272L201 277L202 277L201 272M308 275L308 278L309 278L308 275M338.333 276.667L338.667 277.333L338.333 276.667M171 277L172 278L171 277M269 278L270 279L269 278M240 279L241 280L240 279M172 280L173 281L172 280M200 280L201 281L200 280M309 280L310 281L309 280M337 280L338 281L337 280M241 281L242 282L241 281M268 281L269 282L268 281M173 282L174 283L173 282M310 282L311 283L310 282M336 282L337 283L336 282M198 283L199 284L198 283M243 284L244 285L243 284M244 285L245 286L244 285M265 285L266 286L265 285M195 286L196 287L195 286M178 287L179 288L178 287M247 287L248 288L247 287M262 287L263 288L262 287M315 287L316 288L315 287M331 287L332 288L331 287M180 288L181 289L180 288M192 288L193 289L192 288M249 288L250 289L249 288M260 288L261 289L260 288M317 288L318 289L317 288M329 288L330 289L329 288M183 289L183 290L186 290L183 289M187 289L187 290L190 290L187 289M252.667 289.333L253.333 289.667L252.667 289.333M256.667 289.333L257.333 289.667L256.667 289.333M320 289L320 290L323 290L320 289M324 289L324 290L327 290L324 289M397.333 327.667L397.667 328.333L397.333 327.667M396 332L397 333L396 332M395 335L396 336L395 335M394 338L395 339L394 338M393 340L394 341L393 340M392 342L393 343L392 342M390 345L391 346L390 345M388 348L389 349L388 348M387 349L388 350L387 349M382 354L383 355L382 354M381 355L382 356L381 355M375 359L376 360L375 359z"/>
<path style="fill:#f7d103; stroke:none;" d="M8.66667 360.333L9.33333 360.667L8.66667 360.333M17.6667 360.333L18.3333 360.667L17.6667 360.333z"/>
<path style="fill:#8c8075; stroke:none;" d="M373 360L374 361L373 360z"/>
<path style="fill:#f7d103; stroke:none;" d="M5 361L6 362L5 361M21 361L22 362L21 361z"/>
<path style="fill:#8c8075; stroke:none;" d="M371 361L372 362L371 361z"/>
<path style="fill:#f7d103; stroke:none;" d="M3 362L4 363L3 362M23 362L24 363L23 362z"/>
<path style="fill:#8c8075; stroke:none;" d="M365.667 363.333L366.333 363.667L365.667 363.333z"/>
<path style="fill:#f7d103; stroke:none;" d="M0 364L1 365L0 364M26 364L30 368L26 364z"/>
<path style="fill:#8c8075; stroke:none;" d="M361.667 364.333L362.333 364.667L361.667 364.333M213 365L214 366L213 365M212 366L213 367L212 366z"/>
<path style="fill:#f7d103; stroke:none;" d="M31 370L32 371L31 370z"/>
<path style="fill:#8c8075; stroke:none;" d="M206 371L207 372L206 371z"/>
<path style="fill:#f7d103; stroke:none;" d="M32 372L33 373L32 372z"/>
<path style="fill:#8c8075; stroke:none;" d="M205 372L206 373L205 372z"/>
<path style="fill:#f7d103; stroke:none;" d="M33.3333 375.667L33.6667 376.333L33.3333 375.667z"/>
<path style="fill:#8c8075; stroke:none;" d="M198 378L199 379L198 378M197 379L198 380L197 379z"/>
<path style="fill:#f7d103; stroke:none;" d="M33.3333 384.667L33.6667 385.333L33.3333 384.667z"/>
<path style="fill:#8c8075; stroke:none;" d="M190 385L191 386L190 385M189 386L190 387L189 386z"/>
<path style="fill:#f7d103; stroke:none;" d="M32 388L33 389L32 388M31 390L32 391L31 390z"/>
<path style="fill:#8c8075; stroke:none;" d="M183 391L184 392L183 391M182 392L183 393L182 392z"/>
<path style="fill:#f7d103; stroke:none;" d="M29 393L26 397L29 393z"/>
<path style="fill:#8c8075; stroke:none;" d="M181 393L182 394L181 393z"/>
<path style="fill:#f7d103; stroke:none;" d="M0 396L1 397L0 396M3 398L4 399L3 398M23 398L24 399L23 398z"/>
<path style="fill:#8c8075; stroke:none;" d="M175 398L176 399L175 398z"/>
<path style="fill:#f7d103; stroke:none;" d="M5 399L6 400L5 399M21 399L22 400L21 399z"/>
<path style="fill:#8c8075; stroke:none;" d="M174 399L175 400L174 399z"/>
<path style="fill:#f7d103; stroke:none;" d="M8.66667 400.333L9.33333 400.667L8.66667 400.333M17.6667 400.333L18.3333 400.667L17.6667 400.333z"/>
<path style="fill:#8c8075; stroke:none;" d="M167 405L168 406L167 405M166 406L167 407L166 406M159 412L160 413L159 412M158 413L159 414L158 413M152 418L153 419L152 418M151 419L152 420L151 419z"/>
</svg>
